# File created by Blade
# Date/Time:  Tue Sep 30 19:33:40 2014
#---------------------------------------------------------
:version 1.10
:name HOM
:units
  mass 1.0
  length 1.000000
  angle deg
:documentation
     Acclaim Skeleton File
:root
   axis xyz
   order TX TY TZ RX RY RZ
   position 0.000000 0.000000 0.000000
   orientation 0 0 0
:bonedata
   begin
      id 1
      name Spine_dum
      direction 0.000000 1.000000 0.000000
      length 3.241213
      axis 0.0 0.0 0.0 xyz
   end
   begin
      id 2
      name LeftUpLeg_dum
      direction 1.000000 0.000000 0.000000
      length 3.434019
      axis 0.0 0.0 0.0 xyz
   end
   begin
      id 3
      name RightUpLeg_dum
      direction -1.000000 0.000000 0.000000
      length 3.434019
      axis 0.0 0.0 0.0 xyz
   end
   begin
      id 4
      name Spine
      direction 0.000000 1.000000 0.000000
      length 0.000000
      axis 0.0 0.0 0.0 xyz
      dof rx ry rz
   end
   begin
      id 5
      name Spine_dum1
      direction 0.000000 1.000000 0.000000
      length 18.382958
      axis 0.0 0.0 0.0 xyz
   end
   begin
      id 6
      name Spine_dum2
      direction 0.000000 1.000000 0.000000
      length 12.828261
      axis 0.0 0.0 0.0 xyz
   end
   begin
      id 7
      name Spine_dum3
      direction 0.000000 1.000000 0.000000
      length 12.828261
      axis 0.0 0.0 0.0 xyz
   end
   begin
      id 8
      name Head
      direction 0.000000 1.000000 0.000000
      length 4.527550
      axis 0.0 0.0 0.0 xyz
      dof rx ry rz
   end
   begin
      id 9
      name LeftShoulder
      direction 1.000000 0.000000 0.000000
      length 7.748055
      axis 0.0 0.0 -90.0 xyz
      dof rx ry rz
   end
   begin
      id 10
      name LeftArm
      direction 1.000000 0.000000 0.000000
      length 10.635614
      axis 0.0 0.0 -90.0 xyz
      dof rx ry rz
   end
   begin
      id 11
      name LeftForeArm
      direction 1.000000 0.000000 0.000000
      length 8.346755
      axis 0.0 0.0 -90.0 xyz
      dof ry rz rx
   end
   begin
      id 12
      name LeftHand
      direction 0.000000 0.000000 0.000000
      length 0.000000
      axis 0.0 0.0 -90.0 xyz
      dof rx ry rz
   end
   begin
      id 13
      name LeftHand_dum1
      direction 0.000000 0.000000 0.000000
      length 0.000000
      axis 0.0 0.0 -90.0 xyz
   end
   begin
      id 14
      name LeftHand_dum2
      direction 1.000000 0.000000 0.000000
      length 3.937000
      axis 0.0 0.0 -90.0 xyz
   end
   begin
      id 15
      name LeftHandThumb1
      direction 0.000000 0.000000 1.000000
      length 3.937000
      axis 0.0 0.0 -90.0 xyz
      dof rx rz ry
   end
   begin
      id 16
      name RightShoulder
      direction -1.000000 0.000000 0.000000
      length 7.748055
      axis 0.0 0.0 90.0 xyz
      dof rx ry rz
   end
   begin
      id 17
      name RightArm
      direction -1.000000 0.000000 0.000000
      length 10.635614
      axis 0.0 0.0 90.0 xyz
      dof rx ry rz
   end
   begin
      id 18
      name RightForeArm
      direction -1.000000 0.000000 0.000000
      length 8.346755
      axis 0.0 0.0 90.0 xyz
      dof ry rz rx
   end
   begin
      id 19
      name RightHand
      direction 0.000000 0.000000 0.000000
      length 0.000000
      axis 0.0 0.0 90.0 xyz
      dof rx ry rz
   end
   begin
      id 20
      name RightHand_dum1
      direction 0.000000 0.000000 0.000000
      length 0.000000
      axis 0.0 0.0 90.0 xyz
   end
   begin
      id 21
      name RightHand_dum2
      direction -1.000000 0.000000 0.000000
      length 3.937000
      axis 0.0 0.0 90.0 xyz
   end
   begin
      id 22
      name RightHandThumb1
      direction 0.000000 0.000000 1.000000
      length 3.937000
      axis 0.0 0.0 90.0 xyz
      dof rx rz ry
   end
   begin
      id 23
      name LeftUpLeg
      direction 0.000000 -1.000000 0.000000
      length 15.713025
      axis 0.0 0.0 0.0 xyz
      dof rx ry rz
   end
   begin
      id 24
      name LeftLeg
      direction 0.000000 -1.000000 0.000000
      length 14.435119
      axis 0.0 0.0 0.0 xyz
      dof rx ry rz
   end
   begin
      id 25
      name LeftFoot
      direction 0.000000 -0.258819 0.965926
      length 4.938895
      axis 15.0 0.0 0.0 xyz
      dof rx ry rz
   end
   begin
      id 26
      name LeftToeBase
      direction 0.000000 0.000000 1.000000
      length 2.952750
      axis 0.0 0.0 0.0 xyz
      dof rx ry rz
   end
   begin
      id 27
      name RightUpLeg
      direction 0.000000 -1.000000 0.000000
      length 15.713025
      axis 0.0 0.0 0.0 xyz
      dof rx ry rz
   end
   begin
      id 28
      name RightLeg
      direction 0.000000 -1.000000 0.000000
      length 14.435119
      axis 0.0 0.0 0.0 xyz
      dof rx ry rz
   end
   begin
      id 29
      name RightFoot
      direction 0.000000 -0.258819 0.965926
      length 4.938895
      axis 15.0 0.0 0.0 xyz
      dof rx ry rz
   end
   begin
      id 30
      name RightToeBase
      direction 0.000000 0.000000 1.000000
      length 2.952750
      axis 0.0 0.0 0.0 xyz
      dof rx ry rz
   end
:hierarchy
   begin
      root Spine_dum LeftUpLeg_dum RightUpLeg_dum
      Spine_dum Spine
      LeftUpLeg_dum LeftUpLeg
      RightUpLeg_dum RightUpLeg
      Spine Spine_dum1 Spine_dum2 Spine_dum3
      Spine_dum1 Head
      Spine_dum2 LeftShoulder
      Spine_dum3 RightShoulder
      LeftShoulder LeftArm
      LeftArm LeftForeArm
      LeftForeArm LeftHand
      LeftHand LeftHand_dum1 LeftHand_dum2
      LeftHand_dum1 LeftHandThumb1
      RightShoulder RightArm
      RightArm RightForeArm
      RightForeArm RightHand
      RightHand RightHand_dum1 RightHand_dum2
      RightHand_dum1 RightHandThumb1
      LeftUpLeg LeftLeg
      LeftLeg LeftFoot
      LeftFoot LeftToeBase
      RightUpLeg RightLeg
      RightLeg RightFoot
      RightFoot RightToeBase
   end

# File created by Blade
# Date/Time:  Mon Sep 22 21:09:19 2014
# Frame Rate: 120.000 fps
#------------------------------------------------------
:FULLY-SPECIFIED
:DEGREES
1467
root -4.545682 34.462835 -3.241783 -31.770644 45.447671 -74.650569
Spine -31.185906 -5.046849 41.424422
Head 3.308547 -2.218145 27.019175
LeftShoulder 4.546373 35.744983 34.611000
LeftArm 89.685132 25.959987 -41.718008
LeftForeArm -46.329345 -0.000000 68.399249
LeftHand -13.431921 -0.000000 -13.575174
LeftHandThumb1 -26.253704 0.000000 33.147579
RightShoulder -10.213425 -47.044096 -12.231777
RightArm 62.742365 -13.789463 54.910789
RightForeArm 59.681727 0.000000 88.015378
RightHand -0.990808 0.000000 7.572454
RightHandThumb1 -24.326973 -0.000000 -32.862282
LeftUpLeg -39.119065 18.551925 38.353749
LeftLeg 24.547399 -0.000000 -0.000000
LeftFoot -12.406027 1.496280 4.754367
LeftToeBase -1.052396 -0.000000 0.000000
RightUpLeg -146.336696 -40.665916 15.726671
RightLeg 92.561475 -0.000000 -0.000000
RightFoot 43.694892 -9.760513 -3.395515
RightToeBase 48.540802 -0.000000 -0.000000
1468
root -4.547460 34.470841 -3.247790 -31.299760 45.351633 -74.481625
Spine -31.250044 -4.933768 41.458561
Head 3.148940 -2.019758 27.265944
LeftShoulder 4.536358 35.795028 34.503634
LeftArm 89.704798 26.009692 -41.797983
LeftForeArm -46.396072 -0.000000 68.109994
LeftHand -13.201447 0.000000 -13.909233
LeftHandThumb1 -26.253704 0.000000 33.147579
RightShoulder -10.305529 -47.062881 -12.133694
RightArm 62.731491 -13.825682 55.113282
RightForeArm 59.383318 0.000000 87.948011
RightHand -1.171594 -0.000000 7.571215
RightHandThumb1 -24.326973 -0.000000 -32.862282
LeftUpLeg -39.268338 18.657186 38.352406
LeftLeg 24.523216 -0.000000 -0.000000
LeftFoot -12.228019 1.682827 4.908221
LeftToeBase -1.338110 -0.000000 0.000000
RightUpLeg -146.217618 -40.648541 15.618815
RightLeg 92.331965 -0.000000 -0.000000
RightFoot 43.678385 -9.798460 -3.410231
RightToeBase 48.509323 -0.000000 -0.000000
1469
root -4.547365 34.478707 -3.252812 -30.824319 45.264249 -74.286401
Spine -31.311957 -4.836847 41.466271
Head 3.008878 -1.832815 27.514568
LeftShoulder 4.542195 35.851613 34.434294
LeftArm 89.748282 26.047388 -41.829643
LeftForeArm -46.606676 -0.000000 67.893179
LeftHand -13.138491 -0.000000 -13.962306
LeftHandThumb1 -26.253704 0.000000 33.147579
RightShoulder -10.349431 -47.095706 -12.068354
RightArm 62.701080 -13.830664 55.288163
RightForeArm 59.100882 -0.000000 87.879601
RightHand -1.328182 0.000000 7.859769
RightHandThumb1 -24.326973 -0.000000 -32.862282
LeftUpLeg -39.405453 18.777675 38.320387
LeftLeg 24.490593 -0.000000 -0.000000
LeftFoot -12.067420 1.866529 5.067384
LeftToeBase -1.939043 -0.000000 0.000000
RightUpLeg -146.157920 -40.573660 15.577749
RightLeg 92.144191 -0.000000 -0.000000
RightFoot 43.623773 -9.860561 -3.331456
RightToeBase 48.545889 -0.000000 -0.000000
1470
root -4.547494 34.485191 -3.259453 -30.293372 45.176337 -74.037450
Spine -31.370536 -4.734788 41.457395
Head 2.858475 -1.615413 27.723765
LeftShoulder 4.566940 35.974694 34.401553
LeftArm 89.818046 26.023720 -41.870329
LeftForeArm -46.556396 0.000000 67.698346
LeftHand -13.023146 -0.000000 -14.303095
LeftHandThumb1 -26.253704 0.000000 33.147579
RightShoulder -10.343426 -47.125297 -12.061199
RightArm 62.720807 -13.836552 55.361242
RightForeArm 58.924973 -0.000000 87.806064
RightHand -1.431308 -0.000000 8.030473
RightHandThumb1 -24.326973 -0.000000 -32.862282
LeftUpLeg -39.529588 18.903670 38.259637
LeftLeg 24.458373 -0.000000 -0.000000
LeftFoot -11.931634 2.045693 5.191714
LeftToeBase -2.203009 -0.000000 0.000000
RightUpLeg -146.147809 -40.436215 15.540970
RightLeg 92.005492 -0.000000 -0.000000
RightFoot 43.626778 -9.787752 -3.275080
RightToeBase 48.523102 -0.000000 -0.000000
1471
root -4.546396 34.491839 -3.263695 -29.739280 45.055005 -73.759963
Spine -31.403905 -4.594280 41.437937
Head 2.677827 -1.369560 27.916768
LeftShoulder 4.557244 36.017036 34.384188
LeftArm 89.858234 26.059834 -41.892333
LeftForeArm -46.553770 0.000000 67.543277
LeftHand -12.903131 -0.000000 -14.388246
LeftHandThumb1 -26.253704 0.000000 33.147579
RightShoulder -10.400861 -47.144811 -12.002970
RightArm 62.760787 -13.841581 55.359654
RightForeArm 58.922553 0.000000 87.736030
RightHand -1.499383 -0.000000 8.029119
RightHandThumb1 -24.326973 -0.000000 -32.862282
LeftUpLeg -39.615503 19.058501 38.203374
LeftLeg 24.411766 -0.000000 -0.000000
LeftFoot -11.889636 2.237627 5.211154
LeftToeBase -2.135327 -0.000000 0.000000
RightUpLeg -146.204232 -40.180986 15.590645
RightLeg 91.901603 -0.000000 -0.000000
RightFoot 43.670322 -9.732398 -3.258611
RightToeBase 48.404787 -0.000000 -0.000000
1472
root -4.545909 34.496644 -3.269807 -29.185302 44.949566 -73.471373
Spine -31.432912 -4.453795 41.398425
Head 2.488430 -1.100827 28.081966
LeftShoulder 4.575559 35.993921 34.408966
LeftArm 89.862743 26.100600 -41.891779
LeftForeArm -46.580206 -0.000000 67.437069
LeftHand -12.770227 -0.000000 -14.397730
LeftHandThumb1 -26.253704 0.000000 33.147579
RightShoulder -10.422827 -47.113391 -11.995830
RightArm 62.745913 -13.859018 55.315845
RightForeArm 59.030637 -0.000000 87.675585
RightHand -1.426459 0.000000 8.036550
RightHandThumb1 -24.326973 -0.000000 -32.862282
LeftUpLeg -39.693255 19.151643 38.141377
LeftLeg 24.345401 -0.000000 -0.000000
LeftFoot -11.815179 2.581834 5.334831
LeftToeBase -2.170767 -0.000000 0.000000
RightUpLeg -146.311723 -39.880208 15.693450
RightLeg 91.839271 -0.000000 -0.000000
RightFoot 43.642899 -9.698521 -3.174570
RightToeBase 48.515762 -0.000000 -0.000000
1473
root -4.543670 34.501277 -3.275522 -28.630705 44.801259 -73.165003
Spine -31.437650 -4.326787 41.396069
Head 2.351702 -0.753642 28.212830
LeftShoulder 4.568055 35.979481 34.430141
LeftArm 89.862133 26.127320 -41.867732
LeftForeArm -46.556509 -0.000000 67.385613
LeftHand -12.750318 -0.000000 -14.422943
LeftHandThumb1 -26.253704 0.000000 33.147579
RightShoulder -10.317552 -47.064675 -12.099479
RightArm 62.698766 -13.867196 55.266597
RightForeArm 58.714439 0.000000 87.610611
RightHand -1.468840 -0.000000 8.359899
RightHandThumb1 -24.326973 -0.000000 -32.862282
LeftUpLeg -39.704075 19.232442 38.120476
LeftLeg 24.255373 -0.000000 -0.000000
LeftFoot -11.682347 2.997882 5.641943
LeftToeBase -2.453309 -0.000000 0.000000
RightUpLeg -146.457257 -39.475221 15.871520
RightLeg 91.825692 -0.000000 -0.000000
RightFoot 43.697057 -9.679291 -3.154514
RightToeBase 48.423155 -0.000000 -0.000000
1474
root -4.539416 34.504490 -3.280961 -28.066884 44.656159 -72.808759
Spine -31.429231 -4.180493 41.342139
Head 2.234249 -0.472571 28.321043
LeftShoulder 4.601713 35.976963 34.489364
LeftArm 89.846233 26.123629 -41.860203
LeftForeArm -46.447446 0.000000 67.355134
LeftHand -12.706062 -0.000000 -14.550548
LeftHandThumb1 -26.253704 0.000000 33.147579
RightShoulder -10.281140 -47.150250 -12.112473
RightArm 62.808347 -13.835126 55.058426
RightForeArm 59.006594 0.000000 87.633336
RightHand -1.440731 -0.000000 8.149048
RightHandThumb1 -24.326973 -0.000000 -32.862282
LeftUpLeg -39.670202 19.263512 38.091442
LeftLeg 24.176924 -0.000000 -0.000000
LeftFoot -11.578598 3.464023 5.923233
LeftToeBase -2.628985 -0.000000 0.000000
RightUpLeg -146.611614 -39.012936 16.054691
RightLeg 91.846861 -0.000000 -0.000000
RightFoot 43.665703 -9.795224 -2.966528
RightToeBase 48.545945 -0.000000 -0.000000
1475
root -4.533413 34.507264 -3.287488 -27.487583 44.529115 -72.450016
Spine -31.452537 -4.026687 41.291699
Head 2.134347 -0.210915 28.361035
LeftShoulder 4.622891 35.960266 34.522091
LeftArm 89.837120 26.119629 -41.814240
LeftForeArm -46.417316 -0.000000 67.333579
LeftHand -12.655956 0.000000 -14.656648
LeftHandThumb1 -26.253704 0.000000 33.147579
RightShoulder -10.176893 -47.190529 -12.225011
RightArm 62.810573 -13.827989 54.983922
RightForeArm 59.184932 -0.000000 87.626502
RightHand -1.402031 -0.000000 8.181004
RightHandThumb1 -24.326973 -0.000000 -32.862282
LeftUpLeg -39.647349 19.209984 38.076965
LeftLeg 24.090794 -0.000000 -0.000000
LeftFoot -11.452991 4.008659 6.204246
LeftToeBase -2.867699 -0.000000 0.000000
RightUpLeg -146.830992 -38.515642 16.288488
RightLeg 91.926617 -0.000000 -0.000000
RightFoot 43.733836 -9.796511 -2.905373
RightToeBase 48.196244 -0.000000 -0.000000
1476
root -4.523108 34.510144 -3.294521 -26.860185 44.404243 -72.080086
Spine -31.522193 -3.852267 41.258685
Head 2.063332 0.058220 28.344929
LeftShoulder 4.561524 36.031398 34.486125
LeftArm 89.941405 26.062005 -41.669360
LeftForeArm -46.456705 -0.000000 67.293157
LeftHand -12.633767 0.000000 -14.704590
LeftHandThumb1 -26.253704 0.000000 33.147579
RightShoulder -10.065378 -47.260754 -12.373936
RightArm 62.775347 -13.761556 55.019681
RightForeArm 58.956201 0.000000 87.617854
RightHand -1.680515 -0.000000 8.558810
RightHandThumb1 -24.326973 -0.000000 -32.862282
LeftUpLeg -39.637903 19.128589 38.059739
LeftLeg 23.982727 -0.000000 -0.000000
LeftFoot -11.318103 4.602685 6.452328
LeftToeBase -3.062116 -0.000000 0.000000
RightUpLeg -147.109955 -37.969916 16.582218
RightLeg 92.039802 -0.000000 -0.000000
RightFoot 43.738010 -9.876907 -2.778218
RightToeBase 48.240050 -0.000000 -0.000000
